<svg width="188" height="52" viewBox="0 0 188 52" fill="none" xmlns="http://www.w3.org/2000/svg">
<path d="M26 52C40.3594 52 52 40.3594 52 26C52 11.6406 40.3594 0 26 0C11.6406 0 0 11.6406 0 26C0 40.3594 11.6406 52 26 52Z" fill="#079A4B"/>
<path fill-rule="evenodd" clip-rule="evenodd" d="M26.0496 3.99664C23.1524 3.9919 20.2828 4.559 17.6052 5.66545C14.9276 6.77189 12.4947 8.39592 10.446 10.4444C8.39727 12.493 6.77299 14.9257 5.66627 17.6032C4.55955 20.2806 3.99216 23.1502 3.99661 26.0474C3.99661 38.1564 13.8415 48.0013 26.0496 48.0013C31.1719 48.0098 36.1349 46.2214 40.0744 42.9476C44.0139 39.6737 46.6803 35.1218 47.6093 30.0845C47.8913 28.7578 48.0235 27.4036 48.0035 26.0474C48.0199 25.3573 47.9868 24.6669 47.9044 23.9816H38.1586C40.7082 22.1758 43.5784 20.8722 46.6158 20.1405C43.3672 19.0591 39.3301 20.733 37.066 22.1095C30.1746 26.3448 24.4659 33.6282 21.9044 41.4073C20.8858 41.0632 19.8979 40.6344 18.9509 40.1254C20.9752 35.5523 23.8107 31.3834 27.3202 27.8204C30.864 24.2767 35.293 21.4223 40.612 20.1405C37.3792 19.0591 33.2362 20.7262 30.9721 22.1095C24.8669 25.7523 19.5525 31.6592 16.4007 38.2555C15.9922 37.945 15.6277 37.5805 15.3171 37.1719C14.9282 36.7702 14.567 36.3427 14.2358 35.8923C16.1056 33.1371 18.3697 30.2805 21.0281 27.8204C24.8579 24.2767 29.5888 21.4223 34.91 20.1405C31.7561 19.0591 27.3292 20.8298 25.0651 22.2086C20.4378 24.8669 16.1056 28.7058 12.661 33.234C12.241 32.2406 11.8792 31.2236 11.5774 30.1881C16.599 25.3648 22.6028 21.6273 29.0031 20.145C28.1846 19.849 27.3083 19.7479 26.4439 19.8499C21.0371 20.145 15.2202 24.0829 11.1832 27.5298C11.1009 27.0417 11.0676 26.5466 11.084 26.0519C11.084 17.1915 17.7795 10.005 26.0496 10.005C31.5623 10.005 36.3857 13.2536 38.9449 18.0791H46.5257C44.9472 13.9298 42.1423 10.3596 38.4844 7.84385C34.8265 5.32812 30.4891 3.98617 26.0496 3.99664V3.99664ZM31.5623 30.0845H40.4227C38.7489 36.9759 32.9411 41.9975 26.0496 41.9975H25.0651C26.551 37.6918 28.7471 33.6652 31.5623 30.0845V30.0845Z" fill="#FFC812"/>
<path fill-rule="evenodd" clip-rule="evenodd" d="M70.8506 36.9937C70.8506 35.8455 70.4655 35.08 69.6951 34.6972C68.5207 34.0838 67.296 33.5707 66.0342 33.1633C64.9178 32.9327 63.8219 32.6132 62.7571 32.2079C61.7186 31.8483 60.7426 31.3308 59.8637 30.6739C59.016 30.0507 58.2972 29.271 57.7466 28.3774C57.1097 27.3386 56.7753 26.1446 56.7807 24.9282C56.577 23.6227 56.7786 22.2866 57.3585 21.0977C57.8136 19.9239 58.5404 18.8729 59.48 18.0299C60.4477 17.1521 61.5551 16.4398 62.7571 15.9218C64.1005 15.3745 65.5444 15.1132 66.9957 15.1548C68.1768 15.1588 69.3492 15.3542 70.4669 15.7333C71.4284 16.3075 72.3944 16.6888 73.3559 17.4557C74.1955 18.034 74.8616 18.8277 75.2833 19.7523C75.8235 20.4292 76.221 21.2072 76.4522 22.04H69.7083C69.3246 21.2731 68.3586 21.0802 66.6208 21.0802C65.7251 21.0661 64.848 21.3346 64.1156 21.8472C63.3437 22.4213 63.1497 23.1883 63.3437 24.3365C63.5378 24.9107 64.1156 25.4848 65.0771 25.8705C66.513 26.4733 67.9862 26.9842 69.4878 27.4001C70.5642 27.7308 71.5998 28.1807 72.5752 28.7412C73.5503 29.2677 74.4568 29.9109 75.2745 30.6564C76.0727 31.4661 76.6679 32.4509 77.0123 33.5314C77.4214 34.7001 77.6171 35.932 77.5901 37.169C77.6521 38.4894 77.3871 39.8047 76.8183 40.9995C76.1982 42.1226 75.3441 43.1013 74.313 43.8702C73.2478 44.6606 72.0802 45.3048 70.8418 45.7854C69.529 46.1783 68.1639 46.3718 66.7929 46.3595C65.4693 46.3665 64.1579 46.1071 62.9379 45.597C61.7063 45.105 60.5417 44.4616 59.4712 43.6817C58.4863 42.7186 57.6429 41.6224 56.9659 40.4254C56.3306 39.1782 55.9997 37.7999 56 36.4021H62.7483C62.7523 36.903 62.8566 37.398 63.055 37.8585C63.2534 38.319 63.5419 38.7357 63.9039 39.0843C64.3092 39.4795 64.7933 39.7858 65.3251 39.9836C65.8569 40.1814 66.4245 40.2662 66.9913 40.2326C67.9762 40.2396 68.932 39.9012 69.6906 39.2771C70.464 38.5233 70.8506 37.7622 70.8506 36.9937ZM155.866 30.6739C155.827 28.552 156.29 26.4506 157.216 24.5382C158.01 22.76 159.118 21.1376 160.488 19.7479C161.965 18.3419 163.658 17.179 165.503 16.3031C167.464 15.5162 169.563 15.1244 171.678 15.1504C173.791 15.1422 175.887 15.5334 177.853 16.3031C179.611 17.2274 181.233 18.3864 182.674 19.7479C184.218 21.089 185.179 22.8158 186.145 24.5382C186.916 26.4928 187.308 28.5746 187.301 30.6739V45.0404H180.552V43.5152C178 45.4243 174.881 46.4344 171.687 46.3858C167.385 46.3711 163.249 44.7288 160.122 41.7928C158.765 40.3561 157.714 38.661 157.035 36.8097C156.24 34.8616 155.842 32.7759 155.866 30.6739ZM162.61 30.6739C162.545 31.8721 162.812 33.0649 163.382 34.1231C163.72 35.2505 164.391 36.2508 165.309 36.9937C166.076 37.7995 166.992 38.45 168.008 38.909C169.148 39.4552 170.404 39.7184 171.669 39.6759C172.871 39.6972 174.061 39.4343 175.14 38.909C176.184 38.4801 177.157 37.8996 178.029 37.1866C178.825 36.3386 179.476 35.3675 179.957 34.3115C180.353 33.1396 180.548 31.91 180.535 30.6739C180.532 29.5006 180.337 28.3357 179.957 27.2247C179.382 26.2245 178.738 25.2653 178.029 24.3541C177.112 23.6497 176.147 23.0097 175.14 22.4389C174.022 22.0635 172.85 21.8697 171.669 21.8647C170.425 21.8538 169.188 22.0478 168.008 22.4389C167.033 22.9654 166.127 23.6086 165.309 24.3541C164.471 25.1662 163.815 26.1442 163.382 27.2247C162.847 28.296 162.576 29.4782 162.592 30.6739H162.61ZM138.131 16.5003H144.879V19.3754C146.297 18.3829 147.856 17.6073 149.506 17.0744C151.466 16.6214 153.466 16.3659 155.478 16.3119V23.013C154.026 22.9713 152.582 23.2326 151.239 23.78C150.045 24.2283 148.937 24.876 147.962 25.6952C146.989 26.472 146.2 27.4521 145.651 28.5658C145.101 29.6313 144.836 30.8187 144.879 32.015V45.0404H138.131V16.5003ZM127.916 13.4324C127.916 13.0511 127.916 12.477 127.532 12.2842C127.362 12.0978 127.153 11.95 126.92 11.851C126.687 11.7519 126.435 11.7038 126.182 11.71C125.957 11.7044 125.734 11.7539 125.532 11.854C125.331 11.9541 125.157 12.1018 125.027 12.2842C124.827 12.3971 124.665 12.5665 124.562 12.771C124.459 12.9754 124.42 13.2057 124.449 13.4324V24.5425H131.193V31.2437H124.449V45.036H117.701V31.2437H115.001V24.5469H117.701V13.4368C117.689 12.3252 117.885 11.2211 118.278 10.1805C118.523 9.15784 119.059 8.2268 119.822 7.49828C120.491 6.71617 121.355 6.12226 122.327 5.77589C123.53 5.21016 124.853 4.94677 126.182 5.00892C127.492 4.96798 128.797 5.16248 130.037 5.58305C131.067 5.92806 131.994 6.52135 132.736 7.30983C133.362 8.13507 133.88 9.03644 134.276 9.99203C134.501 11.1277 134.631 12.2799 134.664 13.4368V15.1592H127.916V13.4324ZM80.8893 30.6739C80.8795 28.5744 81.2717 26.4921 82.0449 24.5382C82.9751 22.7917 84.1415 21.18 85.5116 19.7479C86.9883 18.3419 88.6812 17.179 90.5265 16.3031C92.4877 15.5162 94.5866 15.1244 96.7014 15.1504C98.7502 15.1433 100.781 15.5349 102.678 16.3031C104.522 17.179 106.213 18.3419 107.688 19.7479C109.06 21.1374 110.17 22.7598 110.965 24.5382C111.89 26.4512 112.352 28.5522 112.315 30.6739V45.0404H105.567V43.5152C103.001 45.3972 99.8908 46.4042 96.7014 46.3858C94.4515 46.3747 92.2253 45.9281 90.1472 45.071C88.2748 44.3292 86.5711 43.222 85.1367 41.8147C83.7793 40.378 82.729 38.6829 82.0493 36.8316C81.2545 34.8761 80.8601 32.7827 80.8893 30.6739V30.6739ZM87.6332 30.6739C87.6053 31.8496 87.8013 33.0198 88.211 34.1231C88.6932 35.1771 89.3441 36.1466 90.1384 36.9937C91.0084 37.7629 91.9823 38.4075 93.0318 38.909C94.1096 39.4347 95.2981 39.6976 96.4986 39.6759C97.7044 39.7398 98.9048 39.4746 99.9697 38.909C101.056 38.5689 102.046 37.9788 102.859 37.1866C103.776 36.4 104.501 35.417 104.98 34.3115C105.374 33.1391 105.569 31.9099 105.558 30.6739C105.579 29.4797 105.315 28.2975 104.786 27.2247C104.353 26.1442 103.696 25.1662 102.859 24.3541C102.006 23.5648 101.031 22.918 99.9697 22.4389C98.8594 22.0318 97.6817 21.837 96.4986 21.8647C95.3194 21.8693 94.1487 22.0632 93.0318 22.4389C92.0237 23.0097 91.0569 23.6496 90.1384 24.3541C89.4295 25.2653 88.7855 26.2245 88.211 27.2247C87.8333 28.3362 87.6382 29.5008 87.6332 30.6739Z" fill="#079A4B"/>
</svg>
