<svg width="21" height="26" viewBox="0 0 21 26" fill="none" xmlns="http://www.w3.org/2000/svg">
<path d="M17.5397 13.8268C17.5525 12.8302 17.8153 11.8531 18.3037 10.9864C18.792 10.1196 19.4902 9.39133 20.333 8.86936C19.7976 8.09905 19.0912 7.46512 18.27 7.01792C17.4487 6.57071 16.5353 6.32255 15.6022 6.29314C13.6117 6.08268 11.6821 7.49289 10.6677 7.49289C9.63381 7.49289 8.07214 6.31404 6.39047 6.34889C5.30272 6.38428 4.24262 6.7029 3.31347 7.27369C2.38431 7.84448 1.61778 8.64798 1.08857 9.60589C-1.20381 13.6038 0.506105 19.4794 2.70205 22.7111C3.80074 24.2935 5.08477 26.0611 6.76493 25.9985C8.40906 25.9298 9.02311 24.9424 11.0077 24.9424C12.9739 24.9424 13.55 25.9985 15.2642 25.9586C17.0285 25.9298 18.14 24.3691 19.2002 22.7717C19.9896 21.6442 20.597 20.398 21 19.0793C19.975 18.6427 19.1003 17.9117 18.485 16.9777C17.8697 16.0436 17.5409 14.9478 17.5397 13.8268Z" fill="white"/>
<path d="M14.3018 4.16772C15.2638 3.00454 15.7377 1.50947 15.6229 0C14.1533 0.155479 12.7958 0.862979 11.8209 1.98153C11.3442 2.52797 10.9791 3.16369 10.7465 3.85234C10.5139 4.54099 10.4183 5.26907 10.4652 5.99495C11.2003 6.00257 11.9275 5.84209 12.5921 5.52558C13.2566 5.20907 13.8412 4.7448 14.3018 4.16772Z" fill="white"/>
</svg>
