<svg width="120" height="120" viewBox="0 0 120 120" fill="none" xmlns="http://www.w3.org/2000/svg">
<rect width="120" height="120" rx="60" fill="url(#paint0_linear_2016_224)"/>
<path d="M92.1505 27.5H27.8495C25.5334 27.5 23.6559 29.3775 23.6559 31.6935V72.2312C23.6559 74.5472 25.5334 76.4247 27.8495 76.4247H92.1505C94.4666 76.4247 96.3441 74.5472 96.3441 72.2312V31.6935C96.3441 29.3775 94.4666 27.5 92.1505 27.5Z" stroke="white" stroke-width="2.5" stroke-miterlimit="10"/>
<path d="M23.6559 66.9893H96.3441" stroke="white" stroke-width="2.5" stroke-miterlimit="10"/>
<path d="M41.4785 84.1128H78.5215C80.8349 84.1128 82.7151 85.9929 82.7151 88.3063V92.4999H37.2849V88.3063C37.2849 85.9929 39.1651 84.1128 41.4785 84.1128Z" stroke="white" stroke-width="2.5" stroke-miterlimit="10"/>
<path d="M51.9624 76.4248V84.113" stroke="white" stroke-width="2.5" stroke-miterlimit="10"/>
<path d="M68.0376 76.4248V84.113" stroke="white" stroke-width="2.5" stroke-miterlimit="10"/>
<path d="M80.4435 43.9248H74.1532V62.7958H80.4435V43.9248Z" stroke="white" stroke-width="2.5" stroke-miterlimit="10"/>
<path d="M69.6102 50.9141H63.3199V62.7958H69.6102V50.9141Z" stroke="white" stroke-width="2.5" stroke-miterlimit="10"/>
<path d="M91.2769 54.4087H84.9866V62.7958H91.2769V54.4087Z" stroke="white" stroke-width="2.5" stroke-miterlimit="10"/>
<path d="M63.3199 45.2039L74.7893 33.7275L84.9866 43.9249L92.3253 36.5861" stroke="white" stroke-width="2.5" stroke-miterlimit="10"/>
<path d="M88.0479 36.5862H92.2414V40.7797" stroke="white" stroke-width="2.5" stroke-miterlimit="10"/>
<path d="M28.3737 58.6021H49.3414" stroke="white" stroke-width="2.5" stroke-miterlimit="10"/>
<path d="M28.7231 63.4944H41.6532" stroke="white" stroke-width="2.5" stroke-miterlimit="10"/>
<path d="M40.2554 54.4087C46.8175 54.4087 52.1371 49.0891 52.1371 42.527C52.1371 35.9649 46.8175 30.6453 40.2554 30.6453C33.6933 30.6453 28.3737 35.9649 28.3737 42.527C28.3737 49.0891 33.6933 54.4087 40.2554 54.4087Z" stroke="white" stroke-width="2.5" stroke-miterlimit="10"/>
<path d="M40.2554 42.5271H52.1371" stroke="white" stroke-width="2.5" stroke-miterlimit="10"/>
<path d="M40.2554 42.527V30.6453" stroke="white" stroke-width="2.5" stroke-miterlimit="10"/>
<path d="M40.2554 42.5271L31.8683 50.9142" stroke="white" stroke-width="2.5" stroke-miterlimit="10"/>
<defs>
<linearGradient id="paint0_linear_2016_224" x1="120" y1="60" x2="0" y2="60" gradientUnits="userSpaceOnUse">
<stop stop-color="#FFC812"/>
<stop offset="1" stop-color="#D9A600"/>
</linearGradient>
</defs>
</svg>
