<svg width="24" height="26" viewBox="0 0 24 26" fill="none" xmlns="http://www.w3.org/2000/svg">
<path d="M11.2079 12.4185L0.0991211 23.8452C0.223858 24.2793 0.448027 24.6796 0.754493 25.0155C1.06096 25.3515 1.44161 25.6142 1.86734 25.7836C2.29307 25.953 2.75262 26.0246 3.21084 25.9929C3.66907 25.9612 4.11385 25.827 4.51117 25.6007L17.0106 18.6113L11.2079 12.4185Z" fill="#EA4335"/>
<path d="M22.4412 10.4761L17.0358 7.43652L10.9517 12.6785L17.0607 18.5951L22.4246 15.588C22.8999 15.3438 23.2979 14.9764 23.5756 14.5259C23.8534 14.0753 24.0002 13.5587 24.0002 13.0321C24.0002 12.5054 23.8534 11.9888 23.5756 11.5382C23.2979 11.0877 22.8999 10.7204 22.4246 10.4761H22.4412Z" fill="#FBBC04"/>
<path d="M0.0993659 2.16187C0.0322157 2.40559 -0.00119568 2.65708 3.26738e-05 2.90956V23.0974C0.000704316 23.3497 0.0340835 23.601 0.0993659 23.845L11.5889 12.7109L0.0993659 2.16187Z" fill="#4285F4"/>
<path d="M11.2907 13.0034L17.0354 7.43633L4.55256 0.414489C4.08295 0.144458 3.54884 0.00144163 3.00462 5.81263e-06C2.34735 -0.001273 1.70768 0.208489 1.18312 0.597317C0.658558 0.986145 0.277883 1.53271 0.0991211 2.1537L11.2907 13.0034Z" fill="#34A853"/>
</svg>
