<svg width="40" height="40" viewBox="0 0 40 40" fill="none" xmlns="http://www.w3.org/2000/svg">
<g clip-path="url(#clip0_2016_168)">
<path d="M0.0949707 40L2.90664 29.7283C1.17164 26.7217 0.259971 23.3133 0.261637 19.8183C0.266637 8.89167 9.1583 0 20.0833 0C25.385 0.00166667 30.3616 2.06667 34.105 5.81333C37.8466 9.56 39.9066 14.54 39.905 19.8367C39.9 30.765 31.0083 39.6567 20.0833 39.6567C16.7666 39.655 13.4983 38.8233 10.6033 37.2433L0.0949707 40ZM11.09 33.655C13.8833 35.3133 16.55 36.3067 20.0766 36.3083C29.1566 36.3083 36.5533 28.9183 36.5583 19.8333C36.5616 10.73 29.2 3.35 20.09 3.34667C11.0033 3.34667 3.61164 10.7367 3.6083 19.82C3.60664 23.5283 4.6933 26.305 6.5183 29.21L4.8533 35.29L11.09 33.655ZM30.0683 24.5483C29.945 24.3417 29.615 24.2183 29.1183 23.97C28.6233 23.7217 26.1883 22.5233 25.7333 22.3583C25.28 22.1933 24.95 22.11 24.6183 22.6067C24.2883 23.1017 23.3383 24.2183 23.05 24.5483C22.7616 24.8783 22.4716 24.92 21.9766 24.6717C21.4816 24.4233 19.885 23.9017 17.9933 22.2133C16.5216 20.9 15.5266 19.2783 15.2383 18.7817C14.95 18.2867 15.2083 18.0183 15.455 17.7717C15.6783 17.55 15.95 17.1933 16.1983 16.9033C16.45 16.6167 16.5316 16.41 16.6983 16.0783C16.8633 15.7483 16.7816 15.4583 16.6566 15.21C16.5316 14.9633 15.5416 12.525 15.13 11.5333C14.7266 10.5683 14.3183 10.6983 14.015 10.6833L13.065 10.6667C12.735 10.6667 12.1983 10.79 11.745 11.2867C11.2916 11.7833 10.0116 12.98 10.0116 15.4183C10.0116 17.8567 11.7866 20.2117 12.0333 20.5417C12.2816 20.8717 15.525 25.875 20.4933 28.02C21.675 28.53 22.5983 28.835 23.3166 29.0633C24.5033 29.44 25.5833 29.3867 26.4366 29.26C27.3883 29.1183 29.3666 28.0617 29.78 26.905C30.1933 25.7467 30.1933 24.755 30.0683 24.5483Z" fill="white"/>
</g>
<defs>
<clipPath id="clip0_2016_168">
<rect width="40" height="40" fill="white"/>
</clipPath>
</defs>
</svg>
