<svg width="100" height="100" viewBox="0 0 100 100" fill="none" xmlns="http://www.w3.org/2000/svg">
<path d="M50 100C77.6142 100 100 77.6142 100 50C100 22.3858 77.6142 0 50 0C22.3858 0 0 22.3858 0 50C0 77.6142 22.3858 100 50 100Z" fill="#079A4B"/>
<path fill-rule="evenodd" clip-rule="evenodd" d="M50.0953 7.68566C44.5238 7.67654 39.0052 8.76712 33.856 10.8949C28.7068 13.0227 24.0281 16.1458 20.0883 20.0853C16.1484 24.0247 13.0248 28.7031 10.8965 33.8521C8.76819 39.0011 7.67704 44.5195 7.6856 50.091C7.6856 73.3775 26.6181 92.31 50.0953 92.31C59.9458 92.3264 69.49 88.8872 77.0659 82.5913C84.6419 76.2954 89.7696 67.5418 91.5561 57.8546C92.0984 55.3032 92.3527 52.6991 92.3143 50.091C92.3458 48.7639 92.2821 47.4362 92.1237 46.1182H73.3818C78.2848 42.6456 83.8045 40.1387 89.6456 38.7315C83.3983 36.652 75.6347 39.8709 71.2806 42.518C58.0279 50.6629 47.0496 64.6695 42.1237 79.6292C40.1649 78.9675 38.265 78.1429 36.4439 77.164C40.3368 68.3695 45.7897 60.3524 52.5387 53.5006C59.3536 46.6857 67.871 41.1966 78.0998 38.7315C71.8828 36.652 63.9156 39.8579 59.5615 42.518C47.8208 49.5235 37.6007 60.883 31.5397 73.5682C30.754 72.971 30.053 72.2699 29.4558 71.4843C28.708 70.7118 28.0132 69.8897 27.3763 69.0235C30.9721 63.725 35.3262 58.2315 40.4384 53.5006C47.8034 46.6857 56.9014 41.1966 67.1345 38.7315C61.0692 36.652 52.5561 40.0572 48.202 42.7086C39.3033 47.8208 30.9721 55.2032 24.3479 63.9113C23.5402 62.0009 22.8444 60.0452 22.2641 58.0539C31.9209 48.7783 43.4667 41.5909 55.775 38.7402C54.2009 38.171 52.5158 37.9766 50.8534 38.1726C40.4557 38.7402 29.2695 46.3132 21.5059 52.9417C21.3476 52.0031 21.2838 51.051 21.3153 50.0997C21.3153 33.0604 34.1911 19.2401 50.0953 19.2401C60.6966 19.2401 69.9722 25.4874 74.8938 34.7674H89.4723C86.4367 26.7878 81.0426 19.9221 74.0082 15.0841C66.9738 10.2462 58.6327 7.66553 50.0953 7.68566ZM60.6966 57.8546H77.7359C74.5169 71.1074 63.348 80.7642 50.0953 80.7642H48.202C51.0595 72.4841 55.2827 64.7406 60.6966 57.8546Z" fill="#FFC812"/>
</svg>
